<?xml version="1.0" encoding="UTF-8"?>
<svg id="Layer_2" data-name="Layer 2" xmlns="http://www.w3.org/2000/svg" viewBox="0 0 500 278.22">
  <defs>
    <style>
      .cls-1 {
        fill: #a4e5ea;
      }

      .cls-2 {
        fill: #3a949b;
      }

      .cls-3 {
        fill: #fb867c;
      }

      .cls-4 {
        fill: #59b3be;
        opacity: .83;
      }

      .cls-5 {
        fill: #356277;
      }

      .cls-6 {
        fill: #ffa990;
      }
    </style>
  </defs>
  <g id="Layer_4" data-name="Layer 4">
    <rect class="cls-1" width="500" height="268.33"/>
    <path class="cls-4" d="m500,33.78c-33.42,2.62-59.64,27.89-59.64,58.7,0,2.49.19,4.93.52,7.33-3.45-.42-6.99-.63-10.58-.63-28.21,0-52.49,13.27-63.46,32.34-.58-.02-1.16-.03-1.75-.03-16.91,0-31.94,6.35-41.51,16.19-6.08-1.72-12.63-2.66-19.46-2.66-11.8,0-22.78,2.8-31.93,7.59-9.26-6.55-21.47-10.53-34.87-10.53-11.31,0-21.77,2.85-30.33,7.67-10.06-13.57-28.68-22.68-50-22.68-7.12,0-13.94,1.02-20.24,2.88-8.29-23.13-33.91-49.24-65.8-49.24-7.5,0-14.77.62-21.62,1.83-1.51-21.67-21.48-38.83-45.9-38.83-1.16,0-2.3.05-3.44.13v82.68s.02,0,.03,0c0,.26-.03.52-.03.79v114.25h500v-83.83h-.15c.09-1.12.15-2.25.15-3.4,0-1.06-.05-2.12-.12-3.16.04,0,.08,0,.12,0V33.78Z"/>
  </g>
  <g id="Layer_2-2" data-name="Layer 2">
    <path class="cls-6" d="m245.09,247.84h-109.38v-89.27c0-12.94,2.38-23.99,7.12-33.15,4.74-9.16,11.27-16.22,19.57-21.19,8.3-4.96,17.85-7.44,28.63-7.44,13.37,0,24.9,4.26,34.61,12.78,6.84,6,11.96,13.42,15.37,22.26m0,0c.88-5.21,2.9-10.72,8.4-19.67,5.5-8.95,12.4-15.74,20.7-20.38,8.3-4.63,17.74-6.95,28.3-6.95,9.49,0,18.11,1.46,25.88,4.37,7.76,2.91,14.45,7.44,20.05,13.58,5.61,6.15,9.98,13.86,13.1,23.13,3.13,9.27,4.69,20.27,4.69,32.99v88.95h-117.04"/>
    <path class="cls-3" d="m357.44,125.9c-3.12-9.27-7.49-16.98-13.1-23.13-5.61-6.15-12.29-10.67-20.05-13.58-7.76-2.91-16.38-4.37-25.88-4.37-10.56,0-20,2.32-28.3,6.95-8.3,4.64-15.2,11.43-20.7,20.38-5.5,8.95-7.52,14.46-8.4,19.67l1.83,116.02h119.29v-88.95c0-12.72-1.56-23.72-4.69-32.99Z"/>
    <path d="m294.69,128.55c5.42-7.17,9.17-13.98,15.4-2.66.45.88.92,1.74,1.3,2.66,0,0-.08.05-.08.05-8.35-12.53-7.9-8-16.61-.06h0Z"/>
    <path d="m218.7,146.38c-3.48,5.12-8.72,9.75-14.95,11.12-8.34,2.1-16.74-3.32-21.15-10.08,0,0,.14-.14.14-.14,7.95,8,17.45,11.86,27.74,5.41,2.95-1.79,5.6-4.04,8.08-6.45l.14.14h0Z"/>
    <path d="m183.57,143.58c4.54-6.68,8.2-12.51,13.56-2.38.38.79.79,1.56,1.11,2.39l-.08.05c-7.36-11.05-6.96-7.29-14.59-.06h0Z"/>
    <path d="m202.13,143.58c4.61-6.46,8.23-12.38,13.57-2.36.38.79.79,1.55,1.1,2.37,0,0-.08.05-.08.05-7.35-11.03-6.94-6.95-14.59-.06h0Z"/>
    <path d="m313.54,131.72c-4.1,5.68-9.99,10.9-17.06,12.43-9.55,2.33-18.75-3.71-24.02-11.25,0,0,.14-.14.14-.14,9.1,9.13,19.83,13.53,31.61,6.17,3.36-2.04,6.38-4.61,9.2-7.36l.14.14h0Z"/>
    <path d="m273.55,128.55c5.35-7.42,9.14-14.12,15.39-2.68.45.89.93,1.76,1.31,2.69l-.08.05c-8.34-12.53-7.93-8.39-16.61-.06h0Z"/>
  </g>
  <g id="Layer_3" data-name="Layer 3">
    <path class="cls-2" d="m124.05,155.79c.94-4.24,1.45-8.68,1.45-13.26,0-28.87-19.91-52.27-44.47-52.27-11.31,0-21.63,4.97-29.48,13.15-10.09-11.96-24.07-19.37-39.53-19.37-4.13,0-8.14.54-12.02,1.55v127.75c3.87,1,7.89,1.55,12.02,1.55,18.87,0,35.53-11.04,45.59-27.91,6.8,4.96,14.82,7.84,23.42,7.84,2.7,0,5.34-.3,7.91-.84,1.13,18.69,14.36,33.46,30.55,33.46s30.66-16.13,30.66-36.03c0-18.07-11.33-32.99-26.09-35.59Z"/>
    <path class="cls-2" d="m499,101.48c-7.04-4.17-15-6.53-23.44-6.53-14.4,0-27.43,6.85-36.83,17.9-7.31-7.56-16.93-12.15-27.47-12.15-22.88,0-41.43,21.62-41.43,48.29,0,4.23.47,8.34,1.35,12.25-13.75,2.4-24.31,16.19-24.31,32.88,0,18.39,12.79,33.29,28.56,33.29s27.41-13.64,28.46-30.91c2.39.5,4.85.78,7.37.78,8.01,0,15.48-2.66,21.82-7.24,9.38,15.59,24.9,25.79,42.48,25.79,8.44,0,16.4-2.36,23.44-6.53v-107.83Z"/>
    <path class="cls-5" d="m500,278.22v-44.78h-.15c.09-1.25.15-2.52.15-3.8,0-1.19-.05-2.37-.12-3.54.04,0,.08,0,.12,0V94.78c-33.42,2.93-59.64,31.2-59.64,65.67,0,2.78.19,5.51.52,8.2-3.45-.47-6.99-.71-10.58-.71-28.21,0-52.49,14.84-63.46,36.18-.58-.02-1.16-.04-1.75-.04-16.91,0-31.94,7.1-41.51,18.11-6.08-1.92-12.63-2.97-19.46-2.97-11.8,0-22.78,3.13-31.93,8.49-9.26-7.32-21.47-11.78-34.87-11.78-11.31,0-21.77,3.18-30.33,8.58-10.06-15.18-28.68-25.38-50-25.38-7.12,0-13.94,1.14-20.24,3.22-8.29-25.87-33.91-55.08-65.8-55.08-7.5,0-14.77.7-21.62,2.05-1.51-24.24-21.48-43.44-45.9-43.44-1.16,0-2.3.06-3.44.14v92.5s.02,0,.03,0c0,.3-.03.58-.03.88v78.82h500Z"/>
  </g>
</svg>